#!OML:ASF F:\VICON\USERDATA\INSTALL\rory3\rory3.ASF
:FULLY-SPECIFIED
:DEGREES
181
root 1.12833 15.6578 -17.4616 10.4257 0.836423 -2.05332
lowerback 19.9945 -0.78147 -0.00359698
upperback 2.56596 -0.736523 3.11028
thorax -8.36652 -0.300355 3.58423
lowerneck -22.2557 -4.30484 -8.34177
upperneck 3.16613 -4.22135 7.88009
head 4.80689 -1.65511 3.40403
rclavicle -2.78299e-015 2.42517e-014
rhumerus -31.0448 1.67197 -83.6777
rradius 62.5924
rwrist -4.93303
rhand -18.2683 19.5504
rfingers 7.12502
rthumb 8.01139 -10.2778
lclavicle -2.78299e-015 2.42517e-014
lhumerus -26.932 -1.79847 85.9948
lradius 49.6859
lwrist 2.24806
lhand -18.7969 25.2481
lfingers 7.12502
lthumb 7.50114 55.0951
rfemur -44.7156 -2.43272 24.007
rtibia 71.3041
rfoot -24.8642 -9.44113
rtoes -9.63567
lfemur -45.4133 2.9209 -18.2723
ltibia 70.5549
lfoot -27.4746 1.7566
ltoes -11.1437
182
root 1.11759 15.5617 -17.4907 10.625 0.946595 -1.98023
lowerback 20.1977 -0.702077 -0.00270571
upperback 2.85268 -0.644179 3.01282
thorax -8.16881 -0.262379 3.45059
lowerneck -22.9535 -4.40587 -8.08728
upperneck 2.78852 -4.35762 7.92454
head 4.7968 -1.70117 3.35935
rclavicle -1.61016e-014 1.31198e-014
rhumerus -30.6121 1.33139 -83.7728
rradius 63.697
rwrist -5.28976
rhand -18.4231 19.8289
rfingers 7.12502
rthumb 7.862 -10.0049
lclavicle -1.61016e-014 1.31198e-014
lhumerus -26.2997 -1.95922 85.8827
lradius 50.6142
lwrist 2.47582
lhand -18.2203 24.9146
lfingers 7.12502
lthumb 8.05774 54.741
rfemur -46.1695 -2.56782 23.9412
rtibia 73.0241
rfoot -25.3913 -9.22663
rtoes -10.6251
lfemur -46.7325 2.95713 -18.2337
ltibia 72.183
lfoot -27.4837 1.18333
ltoes -11.1693
183
root 1.1071 15.4524 -17.523 10.7195 1.06984 -2.06495
lowerback 20.6637 -0.668436 0.126086
upperback 2.99134 -0.567587 2.99829
thorax -8.27394 -0.229287 3.34969
lowerneck -23.5668 -4.49981 -7.85235
upperneck 2.55396 -4.48441 7.85964
head 4.81395 -1.75251 3.28362
rclavicle -5.76476e-015 -1.74931e-014
rhumerus -30.2575 1.12456 -83.8376
rradius 64.5328
rwrist -5.65193
rhand -18.5927 20.326
rfingers 7.12502
rthumb 7.69827 -9.51392
lclavicle -5.76476e-015 -1.74931e-014
lhumerus -26.0725 -2.00724 85.8227
lradius 51.7679
lwrist 2.77665
lhand -19.9392 21.2172
lfingers 7.12502
lthumb 6.39854 51.1005
rfemur -47.3666 -2.68718 24.0978
rtibia 74.6789
rfoot -25.4352 -8.95326
rtoes -9.96872
lfemur -47.9969 3.06389 -17.993
ltibia 73.8924
lfoot -27.5752 0.165486
ltoes -9.87191
184
root 1.09759 15.3418 -17.5465 10.7594 1.17073 -2.11534
lowerback 21.1333 -0.695796 0.162472
upperback 2.97269 -0.583317 3.01639
thorax -8.54645 -0.233925 3.36668
lowerneck -23.3642 -4.46563 -7.87529
upperneck 2.11132 -4.43794 7.98136
head 4.64585 -1.72776 3.33405
rclavicle -3.97569e-016 1.59028e-015
rhumerus -30.4066 1.26602 -83.9079
rradius 65.5071
rwrist -5.99069
rhand -18.7033 20.7579
rfingers 7.12502
rthumb 7.59154 -9.08584
lclavicle -3.97569e-016 1.59028e-015
lhumerus -26.3373 -1.95193 85.8288
lradius 53.0863
lwrist 3.54965
lhand -21.5889 19.0211
lfingers 7.12502
lthumb 4.80578 48.9466
rfemur -48.3231 -2.85684 24.1954
rtibia 76.282
rfoot -25.5578 -8.57808
rtoes -9.37975
lfemur -49.1982 3.18733 -17.8315
ltibia 75.6008
lfoot -27.3747 -0.106691
ltoes -9.06991
